<svg xmlns="http://www.w3.org/2000/svg" width="1600" height="1000" viewBox="0 0 1600 1000" role="img" aria-labelledby="chart-title chart-subtitle"><rect width="1600" height="1000" fill="#f7f9fc"/><rect x="55" y="45" width="8" height="92" rx="4" fill="#2457a7"/><text id="chart-title" x="90" y="92" font-family="Microsoft YaHei,Arial,sans-serif" font-size="48" font-weight="800" fill="#162033">训练成本与模型性能关系</text><text id="chart-subtitle" x="92" y="132" font-family="Microsoft YaHei,Arial,sans-serif" font-size="24" fill="#607086">性能收益与计算成本权衡</text><g font-family="Microsoft YaHei,Arial,sans-serif"><g id="plot"><g class="grid-line"><line x1="150" y1="830" x2="1460" y2="830" stroke="#dce4ef" stroke-width="2"/><text x="128" y="838" text-anchor="end" font-size="22" fill="#607086">-0.1</text></g><g class="grid-line"><line x1="150" y1="705" x2="1460" y2="705" stroke="#dce4ef" stroke-width="2"/><text x="128" y="713" text-anchor="end" font-size="22" fill="#607086">2.52</text></g><g class="grid-line"><line x1="150" y1="580" x2="1460" y2="580" stroke="#dce4ef" stroke-width="2"/><text x="128" y="588" text-anchor="end" font-size="22" fill="#607086">5.14</text></g><g class="grid-line"><line x1="150" y1="455" x2="1460" y2="455" stroke="#dce4ef" stroke-width="2"/><text x="128" y="463" text-anchor="end" font-size="22" fill="#607086">7.76</text></g><g class="grid-line"><line x1="150" y1="330.00000000000006" x2="1460" y2="330.00000000000006" stroke="#dce4ef" stroke-width="2"/><text x="128" y="338.00000000000006" text-anchor="end" font-size="22" fill="#607086">10.38</text></g><g class="grid-line"><line x1="150" y1="205" x2="1460" y2="205" stroke="#dce4ef" stroke-width="2"/><text x="128" y="213" text-anchor="end" font-size="22" fill="#607086">13</text></g><line x1="150" y1="830" x2="1460" y2="830" stroke="#73839a" stroke-width="3"/><line x1="150" y1="205" x2="150" y2="830" stroke="#73839a" stroke-width="3"/><text x="240.3448275862069" y="872" text-anchor="middle" font-size="21" fill="#607086">12</text><text x="334.4540229885057" y="872" text-anchor="middle" font-size="21" fill="#607086">19</text><text x="442.0073891625616" y="872" text-anchor="middle" font-size="21" fill="#607086">27</text><text x="549.5607553366174" y="872" text-anchor="middle" font-size="21" fill="#607086">35</text><text x="724.3349753694581" y="872" text-anchor="middle" font-size="21" fill="#607086">48</text><text x="899.109195402299" y="872" text-anchor="middle" font-size="21" fill="#607086">61</text><text x="1141.1042692939245" y="872" text-anchor="middle" font-size="21" fill="#607086">79</text><text x="1369.655172413793" y="872" text-anchor="middle" font-size="21" fill="#607086">96</text><circle data-series="0" cx="240.3448275862069" cy="786.8965517241379" r="7" fill="#2457a7" stroke="#ffffff" stroke-width="2"/><circle data-series="0" cx="334.4540229885057" cy="785.6567410603928" r="7" fill="#2457a7" stroke="#ffffff" stroke-width="2"/><circle data-series="0" cx="442.0073891625616" cy="784.7507255753485" r="7" fill="#2457a7" stroke="#ffffff" stroke-width="2"/><circle data-series="0" cx="549.5607553366174" cy="784.0354501924186" r="7" fill="#2457a7" stroke="#ffffff" stroke-width="2"/><circle data-series="0" cx="724.3349753694581" cy="783.1771197329028" r="7" fill="#2457a7" stroke="#ffffff" stroke-width="2"/><circle data-series="0" cx="899.109195402299" cy="782.7956395286735" r="7" fill="#2457a7" stroke="#ffffff" stroke-width="2"/><circle data-series="0" cx="1141.1042692939245" cy="782.2234192223298" r="7" fill="#2457a7" stroke="#ffffff" stroke-width="2"/><circle data-series="0" cx="1369.655172413793" cy="781.9849940946864" r="7" fill="#2457a7" stroke="#ffffff" stroke-width="2"/><circle data-series="1" cx="240.3448275862069" cy="767.8702265382045" r="7" fill="#23856d" stroke="#ffffff" stroke-width="2"/><circle data-series="1" cx="334.4540229885057" cy="724.9537035624147" r="7" fill="#23856d" stroke="#ffffff" stroke-width="2"/><circle data-series="1" cx="442.0073891625616" cy="662.9631703751629" r="7" fill="#23856d" stroke="#ffffff" stroke-width="2"/><circle data-series="1" cx="549.5607553366174" cy="634.3521550579696" r="7" fill="#23856d" stroke="#ffffff" stroke-width="2"/><circle data-series="1" cx="724.3349753694581" cy="548.5191091063903" r="7" fill="#23856d" stroke="#ffffff" stroke-width="2"/><circle data-series="1" cx="899.109195402299" cy="481.7600733662728" r="7" fill="#23856d" stroke="#ffffff" stroke-width="2"/><circle data-series="1" cx="1141.1042692939245" cy="372.0845146503657" r="7" fill="#23856d" stroke="#ffffff" stroke-width="2"/><circle data-series="1" cx="1369.655172413793" cy="248.10344827586198" r="7" fill="#23856d" stroke="#ffffff" stroke-width="2"/></g><g id="legend"><g transform="translate(1040,135)"><rect x="0" y="-15" width="26" height="8" rx="4" fill="#2457a7"/><text x="38" y="-5" font-size="21" fill="#162033">准确率</text></g><g transform="translate(1250,135)"><rect x="0" y="-15" width="26" height="8" rx="4" fill="#23856d"/><text x="38" y="-5" font-size="21" fill="#162033">参数量</text></g></g><text x="805" y="930" text-anchor="middle" font-size="25" font-weight="700" fill="#162033">训练时长 / min</text><text transform="translate(52,517.5) rotate(-90)" text-anchor="middle" font-size="25" font-weight="700" fill="#162033">指标值</text></g></svg>
